<svg t="1610423531930" class="icon" viewBox="0 0 1024 1024" version="1.1" xmlns="http://www.w3.org/2000/svg" p-id="2559" width="64" height="64"><path d="M1005.758836 730.763636h-414.254545c-9.309091 0-18.618182-9.309091-18.618182-18.618181v-41.89091c0-9.309091 9.309091-18.618182 18.618182-18.618181h414.254545c9.309091 0 18.618182 9.309091 18.618182 18.618181v41.89091c0 13.963636-9.309091 18.618182-18.618182 18.618181z m0 148.945455h-414.254545c-9.309091 0-18.618182-9.309091-18.618182-18.618182v-41.890909c0-9.309091 9.309091-18.618182 18.618182-18.618182h414.254545c9.309091 0 18.618182 9.309091 18.618182 18.618182v37.236364c0 13.963636-9.309091 23.272727-18.618182 23.272727z m0 144.290909h-414.254545c-9.309091 0-18.618182-9.309091-18.618182-18.618182v-41.890909c0-9.309091 9.309091-18.618182 18.618182-18.618182h414.254545c9.309091 0 18.618182 9.309091 18.618182 18.618182v37.236364c0 13.963636-9.309091 23.272727-18.618182 23.272727z m-502.690909-372.363636v74.472727c-121.018182 0-218.763636-97.745455-218.763636-214.109091s97.745455-214.109091 218.763636-214.109091 218.763636 97.745455 218.763637 214.109091c0 23.272727-4.654545 51.2-13.963637 74.472727h-83.781818c13.963636-23.272727 23.272727-46.545455 23.272727-74.472727 0-79.127273-65.163636-139.636364-144.290909-139.636364-79.127273 0-144.290909 60.509091-144.290909 139.636364 4.654545 79.127273 65.163636 139.636364 144.290909 139.636364z m-18.618182 297.890909c4.654545 0 9.309091 0 13.963637 4.654545 4.654545 4.654545 4.654545 9.309091 4.654545 13.963637v37.236363c0 9.309091-9.309091 18.618182-18.618182 18.618182H414.631564c-32.581818 0-60.509091-27.927273-65.163637-60.509091l-9.309091-74.472727c-27.927273-13.963636-60.509091-27.927273-88.436363-51.2l-69.818182 27.927273c-27.927273 13.963636-65.163636 4.654545-83.781818-23.272728L9.686109 688.872727c-18.618182-27.927273-9.309091-65.163636 18.618182-83.781818l60.509091-46.545454c-4.654545-32.581818-4.654545-65.163636 0-97.745455l-60.509091-46.545455C0.377018 400.290909-8.932073 363.054545 9.686109 330.472727l88.436364-153.6c18.618182-27.927273 55.854545-37.236364 83.781818-23.272727l69.818182 32.581818c27.927273-23.272727 60.509091-37.236364 88.436363-51.2l9.309091-74.472727C354.122473 27.927273 382.049745 0 414.631564 0h176.872727c32.581818 0 60.509091 27.927273 65.163636 60.509091l9.309091 74.472727c32.581818 13.963636 60.509091 27.927273 88.436364 51.2l69.818182-27.927273c27.927273-13.963636 65.163636-4.654545 83.781818 23.272728l88.436363 153.6c18.618182 27.927273 9.309091 65.163636-18.618181 83.781818l-60.509091 46.545454c4.654545 32.581818 4.654545 65.163636 0 97.745455l32.581818 23.272727H838.1952l4.654545-13.963636c9.309091-37.236364 9.309091-79.127273 0-116.363636l-4.654545-23.272728 93.090909-69.818182-79.127273-134.981818-107.054545 46.545455-18.618182-13.963637c-32.581818-27.927273-65.163636-46.545455-102.4-60.50909l-23.272727-9.309091-13.963637-116.363637H423.940655l-13.963637 116.363637-23.272727 4.654545c-37.236364 13.963636-69.818182 32.581818-102.4 60.509091l-18.618182 13.963636-107.054545-41.890909-79.127273 130.327273 93.090909 69.818182-4.654545 23.272727c-4.654545 18.618182-4.654545 37.236364-4.654546 60.509091 0 18.618182 0 41.890909 4.654546 60.509091l4.654545 23.272727-93.090909 69.818182 79.127273 134.981818 107.054545-46.545454 18.618182 13.963636c32.581818 27.927273 65.163636 46.545455 102.4 60.509091l23.272727 9.309091 13.963637 116.363636h60.50909z" fill="#585E73" p-id="2560"></path></svg>