<svg t="1603184912614" class="icon" viewBox="0 0 1024 1024" version="1.1" xmlns="http://www.w3.org/2000/svg" p-id="3507" width="16" height="16"><path d="M505.3 527.6h-39.2V575h39.2c17 0 25.2-10.8 25.2-23.8s-8.1-23.6-25.2-23.6zM646.8 542.8h47.9l-23.5-70.1zM527.8 471.6c0-13.3-8.9-22.2-24.9-22.2h-36.8v44.4h36.8c16 0 24.9-8.9 24.9-22.2z" p-id="3508"></path><path d="M924.3 620.6c-93.2-42-91-167.7-5.5-208.7 3.5-1.7 6.8-10.7 5.4-14.5-11.7-30-24.5-59.5-37-89.2-3.5-8.4-8.1-10-17.7-7.1-30.9 9.1-61.4 6.9-90-9.3-47-26.8-67.3-77.3-54.5-132 1.3-5.6-0.7-16.3-4.3-18-32.8-15.5-66.3-29.6-99.8-44.2-24.1 49.3-59.4 75.5-110 75.1-50.5-0.4-84.5-28.5-107.7-75-33.5 14.5-65.3 28.1-97.1 42-7.6 3.3-10.5 7.3-8 17.5 23.6 95.1-48.1 166.3-143.9 144.2-4.7-1.1-13.9 2.4-15.7 6.2-15.2 32.3-29.2 65.2-43.5 97.6 102.2 50.8 95.4 174.2 0 218.7 14.1 32.9 27.7 64.7 41.5 96.4 3.6 8.3 7.7 11.8 18.9 8.7 91.5-25 167.5 51.2 142.8 142.9-2.6 9.7-1 14.3 7.3 17.8 29.7 12.5 59.2 25.4 89.2 37 3.9 1.5 13-2.7 15.4-6.7 50.2-84.6 154.3-84.7 204.4 0 2.4 4.1 11.5 8.3 15.4 6.8 29.5-11.2 58.4-23.9 87.6-36 9.9-4.1 11.9-9.5 8.5-20.6-9.3-30.3-6.2-60.2 9.6-88 26.8-47.1 78.8-67.9 132-54.2 5.5 1.4 16.2-0.8 18-4.5 15.7-32.8 29.9-66.2 43.5-97.2-4-4.8-4.3-5.5-4.8-5.7zM395.8 449.4h-89.3v47.4h76v33.5h-76v78.2h-37.6V415.9h126.9v33.5z m113.3 159.1h-80.6V415.9h77.4c37.6 0 59.5 21.1 59.5 54.1 0 21.4-14.1 35.2-23.8 39.8 11.6 5.4 26.5 17.6 26.5 43.3 0 36-24.6 55.4-59 55.4z m207 0l-11.4-34.1h-68.5l-11.6 34.1h-39.2l70.1-192.6H685l70.4 192.6h-39.3z" p-id="3509"></path></svg>