<svg t="1618212635164" class="icon" viewBox="0 0 1024 1024" version="1.1" xmlns="http://www.w3.org/2000/svg" p-id="2091" width="16" height="16"><path d="M663.703704 904.628148H253.060741c-41.813333 0-75.851852-34.038519-75.851852-75.851852v-320.474074c0-15.739259 12.705185-28.444444 28.444444-28.444444s28.444444 12.705185 28.444445 28.444444v320.474074c0 10.42963 8.533333 18.962963 18.962963 18.962963H635.259259V735.573333c0-15.739259 12.705185-28.444444 28.444445-28.444444s28.444444 12.705185 28.444444 28.444444v140.705186c0 15.644444-12.705185 28.34963-28.444444 28.349629zM802.702222 909.084444c-15.739259 0-28.444444-12.705185-28.444444-28.444444v-320.474074c0-15.739259 12.705185-28.444444 28.444444-28.444445s28.444444 12.705185 28.444445 28.444445v320.474074c0 15.739259-12.8 28.444444-28.444445 28.444444z" p-id="2092"></path><path d="M78.791111 536.746667c-7.774815 0-15.54963-3.223704-21.238518-9.481482-10.524444-11.662222-9.481481-29.677037 2.18074-40.201481l394.145186-352.900741c28.823704-25.78963 72.248889-25.78963 101.167407-0.094815l0.094815 0.094815 201.007407 181.854815c11.662222 10.524444 12.515556 28.539259 1.991111 40.201481-10.524444 11.662222-28.539259 12.515556-40.201481 1.991111L517.12 176.545185c-7.205926-6.352593-18.014815-6.352593-25.220741 0.094815L97.754074 529.540741c-5.404444 4.835556-12.231111 7.205926-18.962963 7.205926zM663.703704 589.179259H346.074074c-15.739259 0-28.444444-12.705185-28.444444-28.444444s12.705185-28.444444 28.444444-28.444445h317.62963c15.739259 0 28.444444 12.705185 28.444444 28.444445s-12.705185 28.444444-28.444444 28.444444z" p-id="2093"></path><path d="M663.608889 588.98963c-7.300741 0-14.696296-2.844444-20.195556-8.438519L550.305185 486.4c-10.998519-11.188148-10.903704-29.202963 0.18963-40.201481 11.188148-10.998519 29.202963-10.903704 40.201481 0.189629l93.108148 94.151111c10.998519 11.188148 10.903704 29.202963-0.189629 40.201482-5.594074 5.499259-12.8 8.248889-20.005926 8.248889z" p-id="2094"></path><path d="M569.362963 682.382222c-7.300741 0-14.696296-2.844444-20.195556-8.438518-10.998519-11.188148-10.903704-29.202963 0.18963-40.201482l94.151111-93.108148c11.188148-10.998519 29.202963-10.903704 40.201482 0.18963 10.998519 11.188148 10.903704 29.202963-0.18963 40.201481L589.368889 674.133333c-5.499259 5.499259-12.705185 8.248889-20.005926 8.248889z" p-id="2095"></path><path d="M865.185185 453.12m-18.962963 0a18.962963 18.962963 0 1 0 37.925926 0 18.962963 18.962963 0 1 0-37.925926 0Z" p-id="2096"></path><path d="M865.185185 486.305185c-8.059259 0-15.739259-2.939259-21.902222-8.248889-13.748148-12.136296-15.075556-33.09037-2.939259-46.838518 5.878519-6.637037 13.937778-10.619259 22.85037-11.188148 8.817778-0.568889 17.351111 2.37037 23.988148 8.248889 6.637037 5.878519 10.619259 13.937778 11.188148 22.85037S896 468.385185 890.121481 475.022222c-5.878519 6.637037-13.937778 10.619259-22.85037 11.188148-0.663704 0.094815-1.422222 0.094815-2.085926 0.094815z m0-37.925926h-0.284444c-0.758519 0-2.085926 0.284444-3.223704 1.611852-1.706667 1.991111-1.517037 4.93037 0.379259 6.731852 1.327407 1.137778 2.74963 1.232593 3.413334 1.137778 0.758519 0 2.085926-0.284444 3.223703-1.611852 1.137778-1.327407 1.232593-2.654815 1.137778-3.413333 0-0.758519-0.284444-2.085926-1.611852-3.223704-1.042963-1.042963-2.275556-1.232593-3.034074-1.232593z" p-id="2097"></path><path d="M804.124444 397.842963m-18.962963 0a18.962963 18.962963 0 1 0 37.925926 0 18.962963 18.962963 0 1 0-37.925926 0Z" p-id="2098"></path><path d="M804.124444 431.028148c-8.059259 0-15.739259-2.939259-21.902222-8.248889-6.637037-5.878519-10.619259-13.937778-11.188148-22.755555-0.568889-8.817778 2.37037-17.351111 8.248889-23.988148 12.136296-13.748148 33.09037-15.075556 46.838518-2.93926s15.075556 33.09037 2.93926 46.838519c-5.878519 6.637037-13.937778 10.619259-22.850371 11.188148-0.663704-0.094815-1.422222-0.094815-2.085926-0.094815z m0-37.925926c-1.327407 0-2.654815 0.568889-3.602963 1.611852-1.137778 1.327407-1.232593 2.654815-1.137777 3.413333 0 0.758519 0.284444 2.085926 1.611852 3.223704 1.327407 1.137778 2.74963 1.232593 3.413333 1.137778 0.758519 0 2.085926-0.284444 3.223704-1.611852 1.706667-1.991111 1.517037-4.93037-0.37926-6.731852-0.853333-0.568889-1.991111-1.042963-3.128889-1.042963z" p-id="2099"></path><path d="M926.245926 508.302222m-18.962963 0a18.962963 18.962963 0 1 0 37.925926 0 18.962963 18.962963 0 1 0-37.925926 0Z" p-id="2100"></path><path d="M926.245926 541.487407c-8.059259 0-15.739259-2.939259-21.902222-8.248888-6.637037-5.878519-10.619259-13.937778-11.188148-22.850371s2.37037-17.351111 8.248888-23.988148c5.878519-6.637037 13.937778-10.619259 22.850371-11.188148 8.817778-0.568889 17.351111 2.37037 23.988148 8.248889 13.748148 12.136296 15.075556 33.09037 2.939259 46.838518-5.878519 6.637037-13.937778 10.619259-22.85037 11.188148h-2.085926z m0-37.925926h-0.284445c-0.758519 0-2.085926 0.284444-3.223703 1.611852-1.137778 1.327407-1.232593 2.654815-1.137778 3.413334 0 0.758519 0.284444 2.085926 1.611852 3.223703 1.327407 1.137778 2.74963 1.232593 3.413333 1.137778 0.758519 0 2.085926-0.284444 3.223704-1.611852 1.706667-1.991111 1.517037-4.93037-0.379259-6.731852-1.232593-0.853333-2.465185-1.042963-3.223704-1.042963z" p-id="2101"></path></svg>