<svg t="1617178709868" class="icon" viewBox="0 0 1024 1024" version="1.1" xmlns="http://www.w3.org/2000/svg" p-id="2757" width="16" height="16"><path d="M475.3 476.3L204 316.7c-14.2-8.4-14.2-28.9 0-37.3l271.3-159.7c22.6-13.3 50.7-13.3 73.4 0L820 279.4c14.2 8.4 14.2 28.9 0 37.3L548.7 476.3c-22.7 13.4-50.7 13.4-73.4 0zM172.4 382.3v344.6c0 7.9 4.2 15.2 11 19.2L461.6 909c14.8 8.7 33.5-2 33.5-19.2V546.1c0-7.9-4.2-15.2-11-19.2L205.9 363.1c-14.8-8.7-33.5 2-33.5 19.2zM851.6 389.6V730c0 8.7-4.6 16.8-12.2 21.2L572.7 907c-16.4 9.6-36.9-2.2-36.9-21.2V546.6c0-8.7 4.6-16.7 12.1-21.1l266.8-157c16.3-9.7 36.9 2.1 36.9 21.1z" p-id="2758"></path></svg>